<?xml version="1.0" standalone="no"?>
<!DOCTYPE svg PUBLIC "-//W3C//DTD SVG 20010904//EN"
 "http://www.w3.org/TR/2001/REC-SVG-20010904/DTD/svg10.dtd">
<svg version="1.0" xmlns="http://www.w3.org/2000/svg"
 width="249.000000pt" height="293.000000pt" viewBox="0 0 249.000000 293.000000"
 preserveAspectRatio="xMidYMid meet">

<g transform="translate(0.000000,293.000000) scale(0.100000,-0.100000)"
fill="#000000" stroke="none">
<path d="M1417 2499 c-7 -76 -53 -150 -137 -217 -198 -158 -241 -215 -219
-294 14 -53 52 -108 123 -178 65 -63 71 -59 20 13 -20 28 -45 69 -55 91 -42
93 -21 139 130 286 138 135 166 182 166 277 0 87 -20 103 -28 22z"/>
<path d="M1495 2232 c-139 -63 -204 -117 -226 -191 -16 -55 -5 -99 47 -177 45
-69 48 -85 28 -138 -7 -18 -6 -19 15 -4 37 26 71 80 71 112 0 18 -15 55 -36
89 -50 81 -56 106 -34 154 16 36 98 107 196 170 33 21 1 13 -61 -15z"/>
<path d="M1655 1740 c-18 -8 -17 -9 8 -9 35 -1 83 -25 91 -46 26 -68 -10 -133
-108 -199 -56 -38 -25 -32 54 10 110 57 148 137 100 205 -29 40 -99 59 -145
39z"/>
<path d="M959 1719 c-53 -12 -149 -56 -149 -68 0 -6 26 -18 58 -28 46 -14 95
-17 257 -17 208 0 348 17 404 50 l26 15 -35 -5 c-110 -17 -263 -28 -395 -28
-209 -1 -258 23 -144 69 55 23 44 28 -22 12z"/>
<path d="M962 1534 c-35 -24 -28 -49 21 -69 63 -26 274 -32 406 -11 57 9 108
19 113 22 5 4 -2 14 -16 24 -25 16 -33 16 -109 3 -105 -19 -346 -14 -371 6 -9
8 -15 20 -12 28 7 17 -4 17 -32 -3z"/>
<path d="M999 1361 c-23 -18 -23 -20 -6 -39 52 -57 263 -74 416 -32 l84 23
-37 19 c-35 18 -46 19 -144 8 -125 -14 -259 -2 -278 24 -10 15 -14 14 -35 -3z"/>
<path d="M780 1251 c-96 -38 -117 -71 -57 -90 108 -35 529 -54 713 -32 176 21
314 68 314 108 0 15 -2 14 -15 -4 -19 -27 -53 -38 -180 -59 -128 -22 -558 -26
-650 -6 -92 20 -125 32 -125 46 0 11 40 33 90 50 8 2 2 5 -15 5 -16 0 -50 -8
-75 -18z"/>
<path d="M1740 1135 c-123 -52 -368 -80 -625 -73 -126 4 -157 3 -120 -4 72
-15 465 -14 560 0 103 16 199 48 233 78 33 29 23 28 -48 -1z"/>
<path d="M730 704 c0 -251 -7 -291 -51 -315 -23 -12 -23 -19 -5 -44 13 -19 15
-18 54 9 69 47 72 62 72 340 l0 246 -35 0 -35 0 0 -236z"/>
<path d="M942 810 c-54 -11 -62 -17 -62 -42 0 -17 4 -19 25 -14 14 4 44 9 68
12 51 7 85 -15 89 -60 3 -29 2 -30 -62 -41 -36 -6 -75 -16 -87 -23 -81 -45
-66 -171 23 -188 31 -6 66 3 136 34 5 2 8 -4 8 -13 0 -12 7 -15 28 -13 l27 3
3 118 c3 132 -8 190 -42 212 -29 19 -100 26 -154 15z m114 -192 c9 -15 10 -58
2 -80 -4 -9 -23 -21 -43 -28 -30 -10 -40 -9 -60 4 -28 19 -34 66 -11 85 32 26
101 38 112 19z"/>
<path d="M1595 806 c-39 -9 -50 -15 -50 -31 0 -22 6 -22 87 -10 42 7 49 5 72
-18 14 -14 26 -37 26 -50 0 -22 -5 -25 -60 -30 -74 -8 -115 -28 -135 -67 -22
-42 -19 -85 9 -117 21 -24 31 -28 79 -27 34 0 64 6 80 17 32 21 37 21 37 2 0
-9 9 -15 24 -15 23 0 25 5 32 67 9 91 -1 218 -20 248 -16 24 -71 46 -111 44
-11 -1 -42 -6 -70 -13z m130 -226 c0 -42 -2 -46 -39 -64 -35 -17 -42 -18 -65
-5 -29 16 -40 61 -20 85 14 17 65 33 99 31 23 -2 25 -6 25 -47z"/>
<path d="M1217 693 c20 -65 43 -143 52 -173 l17 -55 46 -3 45 -3 21 48 c27 64
82 250 82 279 0 21 -5 24 -34 24 -33 0 -35 -2 -41 -42 -11 -70 -57 -230 -65
-221 -3 4 -14 33 -22 63 -9 30 -26 88 -38 128 l-22 72 -38 0 -38 0 35 -117z"/>
</g>
</svg>
